<svg width="577" height="273" viewBox="0 0 577 273" fill="none" xmlns="http://www.w3.org/2000/svg">
<g id="coding">
<g id="undraw_programming_2svr (1) 1" clip-path="url(#clip0)">
<path id="Vector" opacity="0.1" d="M492.667 215.875C492.096 217.106 491.526 218.322 490.958 219.52C490.071 221.382 489.196 223.208 488.332 224.998C487.948 225.791 487.563 226.57 487.189 227.348C482.952 236.004 478.996 243.659 475.637 249.955C472.588 255.659 468.061 260.439 462.53 263.793C457 267.147 450.669 268.953 444.201 269.02L369.492 269.832H368.703L362.299 269.901L356.821 269.96L340.022 270.143H339.342L330.789 270.236H330.528L277.815 270.808L230.763 271.3L225.29 271.36L191.297 271.729H191.258L169.212 271.965H168.976L99.2665 272.719L78.4129 272.946C73.9627 272.996 69.5312 272.361 65.2741 271.064C57.8657 268.826 51.2078 264.611 46.0166 258.871C37.0603 249.004 30.5328 237.491 26.1483 224.998C25.5144 223.195 24.9232 221.369 24.3748 219.52C9.1964 168.213 27.7001 102.018 61.0028 57.7213C62.3987 55.869 63.8175 54.0627 65.2593 52.3024L65.2938 52.263C75.5358 39.6911 87.0194 29.1883 99.2517 21.72C120.928 8.46337 144.944 4.72925 168.567 15.8577C188.553 25.2768 207.215 29.7055 225.305 30.9075C227.132 31.0258 228.96 31.1144 230.778 31.1686C272.273 32.4741 311.163 17.5228 356.831 7.87222C358.648 7.48797 360.471 7.10864 362.309 6.74903C394.887 0.266033 431.028 -3.15281 474.006 4.03464C478.471 4.76406 482.877 5.81779 487.189 7.18746C489.084 7.79832 490.91 8.45516 492.667 9.15798C513.181 17.5031 524.369 32.9224 529.123 52.2433C529.573 54.0364 529.962 55.8608 530.291 57.7164C538.72 104.191 514.033 170.115 492.667 215.875Z" fill="#223364"/>
<g id="Group" opacity="0.1">
<path id="Vector_2" opacity="0.1" d="M99.2517 21.7201V272.773L78.3981 273C73.9479 273.05 69.5164 272.416 65.2593 271.118V52.2631H65.2938C75.5358 39.6764 87.0194 29.1736 99.2517 21.7201Z" fill="#223364"/>
<path id="Vector_3" opacity="0.1" d="M530.315 57.7214H61.0029C62.3987 55.8691 63.8175 54.0628 65.2593 52.3025V52.2631H529.148C529.598 54.0464 529.987 55.8658 530.315 57.7214Z" fill="#223364"/>
<path id="Vector_4" opacity="0.1" d="M492.667 9.16295V219.515H490.958C490.071 221.378 489.196 223.204 488.332 224.993C487.948 225.787 487.564 226.565 487.189 227.343V7.17273C489.084 7.78359 490.91 8.44699 492.667 9.16295Z" fill="#223364"/>
<path id="Vector_5" opacity="0.1" d="M362.309 6.73425V269.921L356.831 269.98V7.85745C358.648 7.4732 360.471 7.09387 362.309 6.73425Z" fill="#223364"/>
<path id="Vector_6" opacity="0.1" d="M230.778 31.1538V271.35L225.305 271.409V30.8927C227.132 31.0109 228.96 31.0799 230.778 31.1538Z" fill="#223364"/>
<path id="Vector_7" opacity="0.1" d="M490.958 219.52C490.071 221.382 489.196 223.208 488.332 224.998H26.1483C25.5144 223.195 24.9232 221.369 24.3748 219.52H490.958Z" fill="#223364"/>
</g>
<path id="Vector_8" d="M132.604 130.955H123.243V159.36H132.604V130.955Z" fill="#3F3D56"/>
<path id="Vector_9" d="M384.507 129.478H375.147V159.528H384.507V129.478Z" fill="#3F3D56"/>
<path id="Vector_10" d="M444.201 262.891V269.296L369.359 269.985L368.56 270L340.115 270.261L339.435 270.271L330.789 270.345H330.533L277.83 270.833L191.317 271.635H191.243L169.247 271.842L169.01 271.847L71.2695 272.744V265.354L94.2514 251.561L140.363 251.177L141.348 251.172L141.673 251.167L142.659 251.152L164.798 250.97L165.788 250.965L166.104 250.96L167.089 250.955L174.188 250.896L174.375 250.891L191.888 250.743H192.031L328.691 249.59L332.036 249.566H332.371L334.923 249.541L353.471 249.388L354.456 249.374L355.368 249.364H355.84L361.609 249.319L362.752 249.305L364.284 249.295L369.088 249.25L376.709 249.186L377.694 249.177L379.409 249.167H379.729L416.534 248.851L444.201 262.891Z" fill="#65617D"/>
<path id="Vector_11" opacity="0.2" d="M444.201 262.891V269.296L369.359 269.985L368.56 270L340.115 270.261L339.435 270.271L330.789 270.345H330.533L277.83 270.833L191.317 271.635H191.243L169.247 271.842L169.01 271.847L71.2695 272.744V265.354L94.2514 251.561L140.363 251.177L141.348 251.172L141.673 251.167L142.659 251.152L164.798 250.97L165.788 250.965L166.104 250.96L167.089 250.955L174.188 250.896L174.375 250.891L191.888 250.743H192.031L328.691 249.59L332.036 249.566H332.371L334.923 249.541L353.471 249.388L354.456 249.374L355.368 249.364H355.84L361.609 249.319L362.752 249.305L364.284 249.295L369.088 249.25L376.709 249.186L377.694 249.177L379.409 249.167H379.729L416.534 248.851L444.201 262.891Z" fill="black"/>
<path id="Vector_12" d="M164.872 238.265V250.329C164.872 250.901 164.71 251.46 164.405 251.944C164.1 252.427 163.664 252.813 163.148 253.058C162.763 253.245 162.343 253.346 161.916 253.354L144.723 253.719C144.264 253.73 143.808 253.633 143.393 253.438C142.867 253.197 142.422 252.81 142.111 252.324C141.799 251.837 141.633 251.272 141.634 250.694V238.265H164.872Z" fill="#3F3D56"/>
<path id="Vector_13" opacity="0.1" d="M164.872 238.265V250.329C164.872 250.901 164.71 251.46 164.405 251.944C164.1 252.427 163.664 252.813 163.148 253.058C162.763 253.245 162.343 253.346 161.916 253.354L144.723 253.719C144.264 253.73 143.808 253.633 143.393 253.438C142.867 253.197 142.422 252.81 142.111 252.324C141.799 251.837 141.633 251.272 141.634 250.694V238.265H164.872Z" fill="black"/>
<path id="Vector_14" d="M165.857 238.265V250.329C165.857 250.901 165.696 251.46 165.39 251.944C165.085 252.427 164.649 252.813 164.133 253.058C163.749 253.245 163.328 253.346 162.901 253.354L145.708 253.719C145.249 253.73 144.793 253.633 144.378 253.438C143.853 253.197 143.408 252.81 143.096 252.324C142.784 251.837 142.619 251.272 142.619 250.694V238.265H165.857Z" fill="#3F3D56"/>
<path id="Vector_15" d="M377.694 238.265H354.456V253.783H377.694V238.265Z" fill="#3F3D56"/>
<path id="Vector_16" opacity="0.1" d="M377.694 238.265H354.456V253.783H377.694V238.265Z" fill="black"/>
<path id="Vector_17" d="M376.709 238.265H353.471V253.783H376.709V238.265Z" fill="#3F3D56"/>
<path id="Vector_18" opacity="0.1" d="M132.604 130.951V133.773L123.243 133.532V130.951H132.604Z" fill="black"/>
<path id="Vector_19" d="M194.214 51.4304L182.967 132.221C182.895 132.738 182.636 133.209 182.239 133.546C181.842 133.884 181.335 134.063 180.814 134.049L90.7585 131.714L89.049 131.67C88.7514 131.663 88.4586 131.593 88.1897 131.465C87.9208 131.337 87.6819 131.154 87.4885 130.928C87.2951 130.702 87.1516 130.437 87.0674 130.151C86.9832 129.866 86.9601 129.566 86.9996 129.271L99.6261 44.6962C99.7075 44.1723 99.9824 43.698 100.396 43.3669C100.811 43.0358 101.334 42.8721 101.863 42.9079L192.243 49.0264C192.535 49.0433 192.82 49.1204 193.08 49.253C193.34 49.3855 193.57 49.5706 193.755 49.7965C193.941 50.0224 194.077 50.2842 194.156 50.5654C194.235 50.8466 194.254 51.1412 194.214 51.4304V51.4304Z" fill="#65617D"/>
<path id="Vector_20" d="M105.671 48.8491L96.1481 123.399L178.912 126.024L189.09 54.1005L105.671 48.8491Z" fill="#223364"/>
<path id="Vector_21" d="M306.675 47.6963H211.097C209.646 47.6963 208.471 48.8719 208.471 50.322V130.458C208.471 131.908 209.646 133.084 211.097 133.084H306.675C308.125 133.084 309.3 131.908 309.3 130.458V50.322C309.3 48.8719 308.125 47.6963 306.675 47.6963Z" fill="#65617D"/>
<path id="Vector_22" d="M304.862 53.4453H213.23V124.546H304.862V53.4453Z" fill="#223364"/>
<path id="Vector_23" opacity="0.1" d="M384.507 129.473V131.34L375.147 131.532V129.473H384.507Z" fill="black"/>
<path id="Vector_24" d="M426.742 127.896C426.755 128.1 426.727 128.305 426.659 128.498C426.591 128.691 426.485 128.868 426.347 129.019C426.209 129.17 426.042 129.292 425.856 129.376C425.67 129.461 425.468 129.507 425.264 129.512L333.041 131.419C332.658 131.426 332.286 131.289 332 131.034C331.714 130.779 331.535 130.426 331.499 130.044L323.572 47.6372C323.553 47.4327 323.575 47.2264 323.637 47.0308C323.7 46.8352 323.801 46.6543 323.936 46.499C324.07 46.3438 324.235 46.2175 324.42 46.1278C324.605 46.038 324.806 45.9868 325.011 45.977L416.534 41.4251L417.519 41.3759C417.911 41.3552 418.295 41.4876 418.591 41.7449C418.887 42.0023 419.072 42.3645 419.106 42.7552L426.742 127.896Z" fill="#65617D"/>
<path id="Vector_25" d="M328.839 50.8196L412.425 46.7111L419.485 121.591L336.558 123.561L328.839 50.8196Z" fill="#223364"/>
<path id="Vector_26" opacity="0.1" d="M426.742 127.896C426.755 128.1 426.727 128.305 426.659 128.498C426.591 128.691 426.485 128.868 426.347 129.019C426.209 129.17 426.042 129.292 425.856 129.376C425.67 129.461 425.468 129.507 425.264 129.512L416.534 41.4251L417.519 41.3759C417.911 41.3552 418.295 41.4876 418.591 41.7449C418.887 42.0023 419.072 42.3645 419.106 42.7552L426.742 127.896Z" fill="black"/>
<path id="Vector_27" opacity="0.1" d="M101.877 42.9031L90.7585 131.714L89.049 131.67C88.7514 131.663 88.4586 131.593 88.1897 131.465C87.9208 131.337 87.6819 131.154 87.4885 130.928C87.2951 130.702 87.1516 130.437 87.0674 130.151C86.9832 129.866 86.9601 129.566 86.9996 129.271L99.6261 44.6962C99.7065 44.1687 99.9831 43.691 100.4 43.3586C100.818 43.0261 101.345 42.8635 101.877 42.9031V42.9031Z" fill="black"/>
<path id="Vector_28" opacity="0.1" d="M132.604 150.946H123.243V159.361H132.604V150.946Z" fill="black"/>
<path id="Vector_29" opacity="0.1" d="M165.857 238.26V240.708L142.619 241.329V238.26H165.857Z" fill="black"/>
<path id="Vector_30" d="M206.87 153.878V236.738C206.864 237.243 206.664 237.728 206.311 238.09C205.957 238.452 205.479 238.665 204.973 238.684L110.558 241.196H110.533C110.019 241.19 109.528 240.983 109.164 240.619C108.801 240.255 108.594 239.764 108.587 239.25V153.878C108.594 153.363 108.801 152.872 109.164 152.509C109.528 152.145 110.019 151.938 110.533 151.932H204.924C205.438 151.938 205.929 152.145 206.293 152.509C206.656 152.872 206.863 153.363 206.87 153.878V153.878Z" fill="#65617D"/>
<path id="Vector_31" opacity="0.1" d="M110.558 151.932V241.196H110.533C110.019 241.19 109.528 240.983 109.164 240.619C108.801 240.255 108.594 239.764 108.587 239.25V153.878C108.594 153.363 108.801 152.872 109.164 152.509C109.528 152.145 110.019 151.938 110.533 151.932H110.558Z" fill="black"/>
<path id="Vector_32" d="M114.869 157.222H202.313V230.255L114.869 232.225V157.222Z" fill="#D4DFEC"/>
<path id="Vector_33" opacity="0.1" d="M384.507 150.946H375.147V159.528H384.507V150.946Z" fill="black"/>
<path id="Vector_34" opacity="0.1" d="M376.709 238.26V241.418L353.471 240.797V238.26H376.709Z" fill="black"/>
<path id="Vector_35" d="M407.376 153.878V239.25C407.369 239.768 407.159 240.263 406.79 240.628C406.421 240.992 405.924 241.196 405.405 241.196V241.196L310.97 238.684C310.465 238.665 309.986 238.452 309.633 238.09C309.28 237.728 309.08 237.243 309.074 236.738V153.878C309.08 153.363 309.287 152.872 309.651 152.509C310.014 152.145 310.506 151.938 311.02 151.932H405.41C405.928 151.933 406.424 152.138 406.792 152.502C407.16 152.866 407.369 153.36 407.376 153.878V153.878Z" fill="#65617D"/>
<path id="Vector_36" opacity="0.1" d="M407.376 153.878V239.25C407.369 239.768 407.159 240.263 406.79 240.628C406.421 240.992 405.924 241.196 405.405 241.196V241.196V151.932C405.924 151.932 406.421 152.136 406.79 152.5C407.159 152.864 407.369 153.359 407.376 153.878Z" fill="black"/>
<path id="Vector_37" d="M401.095 157.222H313.65V230.255L401.095 232.225V157.222Z" fill="#D4DFEC"/>
<path id="Vector_38" d="M306.63 153.878V236.738C306.624 237.243 306.424 237.728 306.071 238.09C305.718 238.452 305.239 238.665 304.734 238.684L210.318 241.196C209.8 241.196 209.302 240.992 208.934 240.628C208.565 240.263 208.354 239.768 208.348 239.25V153.878C208.354 153.363 208.561 152.872 208.925 152.509C209.288 152.145 209.78 151.938 210.294 151.932H304.684C305.198 151.938 305.69 152.145 306.053 152.509C306.417 152.872 306.624 153.363 306.63 153.878V153.878Z" fill="#65617D"/>
<path id="Vector_39" d="M214.629 157.222H302.073V230.255L214.629 232.225V157.222Z" fill="#D4DFEC"/>
<path id="Vector_40" opacity="0.1" d="M444.201 262.891V269.296L369.359 269.985L368.56 270L340.115 270.261L339.435 270.271L330.789 270.345H330.533L277.83 270.833L191.317 271.636H191.243L169.247 271.842L169.01 271.847L71.2695 272.744V265.354L171.035 264.699H171.271L191.465 264.561H191.558L331.016 263.64H331.159L331.243 263.635H331.474L333.834 263.62H334.553L371.25 263.374L373.418 263.364L373.901 263.359L444.201 262.891Z" fill="black"/>
<path id="Vector_41" d="M259.046 159.36C273.012 159.36 284.333 148.039 284.333 134.074C284.333 120.108 273.012 108.787 259.046 108.787C245.08 108.787 233.758 120.108 233.758 134.074C233.758 148.039 245.08 159.36 259.046 159.36Z" fill="#FBBEBE"/>
<path id="neck" d="M284.338 185.8C284.338 185.8 235.32 191.711 240 185.8C241.695 183.662 242.163 177.327 242.069 170.11C242.04 167.917 241.961 165.646 241.848 163.385C241.306 152.547 240 141.956 240 141.956C240 141.956 282.86 121.758 277.934 137.769C275.963 144.237 276.608 153.321 278.106 161.848C278.545 164.336 279.052 166.774 279.584 169.09C280.883 174.737 282.469 180.315 284.338 185.8V185.8Z" fill="#FBBEBE"/>
<path id="Vector_42" opacity="0.1" d="M284.338 185.8C284.338 185.8 235.32 191.711 240 185.8C241.695 183.662 242.163 177.327 242.069 170.11C249.543 166.917 259.051 169.297 259.051 169.297C269.061 167.302 275.48 167.691 279.584 169.09C280.883 174.737 282.469 180.315 284.338 185.8V185.8Z" fill="black"/>
<path id="Vector_43" d="M191.297 272.192V271.778L277.815 270.837L330.528 270.345H330.676L330.622 271.074L330.696 270.345H330.789V270.261L331.464 263.635L331.721 261.128L331.799 260.344L331.868 259.689L334.913 249.536L337.957 239.398L340.519 230.861L344.431 217.816C344.431 217.816 342.214 212.643 340.982 211.165C339.751 209.687 338.519 199.588 338.519 199.588C338.519 199.588 328.006 189.573 323.41 188.421C321.483 187.928 317.68 187.273 313.64 186.45C312.128 186.145 310.576 185.819 309.084 185.465C308.241 185.273 307.413 185.071 306.62 184.869C305.077 184.483 303.555 184.013 302.063 183.46C301.281 183.176 300.537 182.797 299.846 182.332C296.226 179.676 287.151 179.376 286.801 179.376C286.8 179.364 286.8 179.353 286.801 179.341V179.297C286.814 179.09 286.814 178.883 286.801 178.676C286.801 178.479 286.801 178.248 286.757 177.987C286.757 177.908 286.757 177.824 286.722 177.74C286.698 177.563 286.668 177.376 286.624 177.179C286.609 177.091 286.589 177.004 286.565 176.918C286.422 176.324 286.216 175.748 285.949 175.198C285.914 175.12 285.87 175.036 285.831 174.957C285.589 174.502 285.309 174.068 284.993 173.661C284.929 173.578 284.86 173.489 284.786 173.405C284.383 172.929 283.934 172.494 283.446 172.105C283.313 172.001 283.175 171.893 283.033 171.794C282.953 171.73 282.869 171.67 282.781 171.617L282.343 171.331L281.934 171.095C281.574 170.898 281.195 170.706 280.781 170.523C280.653 170.464 280.515 170.41 280.377 170.356C280.239 170.302 280.022 170.218 279.84 170.149H279.811L279.441 170.001C279.16 169.908 278.875 169.824 278.574 169.74L278.116 169.622L277.623 169.509L277.131 169.405C276.638 169.307 276.111 169.218 275.559 169.149L274.997 169.08L274.421 169.021L273.825 168.972L272.978 168.922L271.992 168.888C267.647 168.887 263.314 169.348 259.065 170.262C256.114 169.606 253.091 169.327 250.07 169.435H249.641L249.148 169.464H248.833L248.198 169.523C247.986 169.523 247.769 169.568 247.557 169.597C247.345 169.627 247.124 169.651 246.912 169.686L246.587 169.74C246.266 169.794 245.941 169.853 245.601 169.922C245.493 169.942 245.385 169.967 245.276 169.996C244.848 170.09 244.419 170.203 243.995 170.331C243.784 170.39 243.572 170.459 243.36 170.533C243.252 170.563 243.148 170.602 243.045 170.642L242.729 170.755L242.419 170.878L242.049 171.026C241.862 171.105 241.68 171.188 241.498 171.277C241.394 171.321 241.291 171.371 241.192 171.425C241.094 171.479 240.99 171.523 240.897 171.578C239.783 172.153 238.753 172.879 237.837 173.735L237.586 173.977L237.34 174.228C237.256 174.312 237.177 174.4 237.098 174.489C236.777 174.84 236.478 175.21 236.202 175.597C236.123 175.701 236.049 175.804 235.975 175.913C235.663 176.374 235.38 176.854 235.128 177.351C235.064 177.469 235.005 177.593 234.946 177.711C234.544 178.543 234.214 179.408 233.96 180.297C233.868 180.626 233.785 180.954 233.709 181.282C233.709 181.282 223.28 185.884 214.629 189.214C212.328 190.1 210.161 190.903 208.348 191.509C207.821 191.687 207.328 191.849 206.87 192.002C205.876 192.361 204.842 192.599 203.791 192.711C203.295 192.719 202.801 192.766 202.313 192.849C198.337 193.495 191.524 196.298 190.78 199.111C190.72 199.335 190.703 199.569 190.731 199.8C190.731 199.8 190.731 199.835 190.731 199.854C191.223 203.303 187.775 202.81 187.775 202.81C187.775 202.81 186.543 211.924 184.819 214.387C183.573 216.16 182.72 220.116 182.612 223.102C182.55 224.032 182.623 224.966 182.829 225.875C182.829 225.9 182.829 225.924 182.829 225.944C183.026 226.604 182.553 228.407 181.75 230.718C180.878 233.255 179.607 236.408 178.385 239.383C176.543 243.876 174.809 247.955 174.7 248.851C174.656 249.25 174.528 249.965 174.35 250.886C173.631 254.64 172.035 261.788 171.247 264.68C170.66 266.837 169.808 269.793 169.222 271.823C169.222 271.882 169.187 271.941 169.173 271.995L191.258 271.778V272.192H191.327H191.297Z" fill="#223364"/>
<path id="Vector_44" opacity="0.1" d="M199.357 214.126C199.357 214.126 227.438 228.659 237.537 226.934L199.357 214.126Z" fill="black"/>
<path id="Vector_45" opacity="0.1" d="M256.504 208.214C256.504 208.214 283.845 217.082 292.959 218.313C302.073 219.545 256.504 208.214 256.504 208.214Z" fill="black"/>
<path id="Vector_46" opacity="0.1" d="M286.831 179.681C272.544 182.312 245.646 181.745 234.019 181.346C238.281 166.075 259.061 171.267 259.061 171.267C284.781 166.134 286.752 176.785 286.831 179.681Z" fill="black"/>
<path id="Vector_47" d="M286.831 178.696C272.544 181.327 245.646 180.76 234.019 180.361C238.281 165.09 259.061 170.282 259.061 170.282C284.781 165.149 286.752 175.799 286.831 178.696Z" fill="#223364"/>
<path id="hand" d="M362.668 246.024C362.668 246.024 379.497 243.437 379.827 250.827C380.157 258.216 371.245 263.379 371.245 263.379L362.668 246.024Z" fill="#FBBEBE"/>
<path id="hair" d="M252.109 94.5503C251.406 94.736 250.669 94.7547 249.958 94.605C249.246 94.4554 248.579 94.1414 248.01 93.6882L249.035 95.1119C248.431 95.1816 247.819 95.1185 247.243 94.927C246.666 94.7356 246.137 94.4204 245.695 94.0035C245.602 95.2779 245.655 96.5589 245.853 97.8213C244.157 97.9031 242.488 97.3793 241.143 96.3435C241.117 96.7879 241.227 97.2297 241.46 97.6093C241.692 97.9889 242.036 98.2882 242.444 98.4667C240.74 98.2632 239.021 98.6864 237.607 99.6572C236.193 100.628 235.18 102.08 234.758 103.743L237.33 103.979C235.309 104.411 233.495 105.518 232.187 107.117C231.399 108.103 230.797 109.364 231.142 110.566C231.487 111.768 233.152 112.536 234.059 111.679C232.769 113.218 231.832 115.02 231.313 116.96C230.794 118.899 230.705 120.929 231.054 122.906C231.288 123.749 231.364 124.627 231.28 125.497C231.118 126.31 230.605 127.015 230.349 127.808C229.857 129.246 230.325 130.808 230.763 132.241L233.074 139.838C233.911 142.582 234.744 145.33 235.837 147.986C236.612 149.664 237.27 151.394 237.808 153.163C238.429 155.548 238.453 158.158 239.778 160.242C240.687 161.554 241.901 162.624 243.316 163.361C248.188 166.149 254.075 166.74 259.652 166.07C265.228 165.4 270.579 163.553 275.884 161.72C277.063 161.365 278.194 160.869 279.254 160.242C282.924 157.838 283.742 152.922 284.427 148.592C285.19 143.764 286.21 138.946 288.018 134.404C289.092 131.699 290.481 128.955 290.245 126.059C289.944 122.211 286.9 119.093 286.146 115.31C285.894 114.045 285.905 112.742 286.181 111.482C286.414 110.731 286.545 109.952 286.57 109.167C286.486 107.58 285.185 106.359 283.964 105.339C281.313 103.125 278.577 101.033 275.756 99.0628C275.613 98.0775 276.953 97.6538 277.559 96.8755C278.416 95.7769 277.53 94.033 276.229 93.5207C274.929 93.0084 273.47 93.3433 272.116 93.6832C272.204 92.9898 272.066 92.2864 271.722 91.6777C271.379 91.0689 270.848 90.5873 270.209 90.3045C269.569 90.0217 268.856 89.9527 268.174 90.1079C267.493 90.2632 266.879 90.6342 266.426 91.1659C266.066 90.341 265.491 89.6278 264.761 89.1009C264.032 88.574 263.174 88.2528 262.277 88.1707C259.011 87.9146 258.947 90.4122 256.858 91.7866C254.77 93.1611 253.045 91.3482 251.439 90.028C251.144 90.7742 251.051 91.585 251.168 92.3789C251.286 93.1727 251.611 93.9216 252.109 94.5503Z" fill="#3F3D56"/>
<path id="Vector_48" d="M375.147 260.803C375.147 260.803 374.709 261.847 373.901 263.359C372.679 265.686 371.191 267.863 369.467 269.847L369.334 269.99H368.536L340.091 270.251H339.411L339.327 270.153L333.809 263.606L331.73 261.138L331.647 261.034L331.469 260.827L331.371 260.709L331.243 260.556L327.198 255.758L328.676 249.6L331.193 239.225L331.257 238.974L331.75 237.004L332.1 235.526L333.272 230.708L337.292 214.131L344.436 217.826L351.968 231.127L356.013 238.27H358.23C358.648 238.27 359.609 239.078 360.575 240.009C360.92 240.339 361.264 240.689 361.56 240.994C362.437 241.9 363.132 242.679 363.132 242.679C363.132 242.679 366.723 242.758 367.688 245.585C367.738 245.722 367.779 245.862 367.812 246.004C368.132 247.116 368.549 248.197 369.058 249.236C369.694 250.62 370.492 252.191 371.3 253.763C372.802 256.645 374.329 259.389 374.891 260.384L374.96 260.507L375.147 260.803Z" fill="#223364"/>
<path id="Vector_49" opacity="0.1" d="M332.829 238.56L332.78 239.265V239.314L332.696 240.447L332.041 249.566L331.248 260.551L331.021 263.645L330.528 270.266V270.35L277.815 270.842L191.312 271.778V272.192H191.243V271.778V271.64L191.465 264.566L191.888 250.743L192.253 239.023L192.288 237.856C192.309 237.151 192.474 236.458 192.772 235.82C193.071 235.181 193.496 234.609 194.023 234.141C194.549 233.672 195.166 233.315 195.835 233.093C196.504 232.87 197.211 232.786 197.914 232.846C200.239 233.043 203.259 233.284 206.87 233.541L208.348 233.649C229.201 235.097 267.741 236.969 306.63 234.634C307.448 234.59 308.271 234.541 309.093 234.481C315.123 234.102 321.148 233.614 327.114 233.004C327.869 232.925 328.631 233.012 329.348 233.259C330.064 233.507 330.718 233.908 331.263 234.436C331.808 234.963 332.231 235.604 332.501 236.312C332.772 237.02 332.884 237.779 332.829 238.536V238.56Z" fill="black"/>
<path id="Vector_50" d="M191.297 272.192V271.778L277.815 270.837L330.528 270.345H330.676V270.261L331.169 263.64L331.381 260.684L332.189 249.546L332.824 240.728V240.511C332.853 240.105 332.835 239.696 332.77 239.294C332.773 239.278 332.773 239.261 332.77 239.245C332.635 238.414 332.296 237.629 331.785 236.959C331.242 236.264 330.531 235.718 329.719 235.373C328.907 235.028 328.021 234.896 327.144 234.989C321.178 235.6 315.153 236.087 309.123 236.467C308.3 236.526 307.478 236.575 306.66 236.619C267.77 238.93 229.231 237.058 208.377 235.634L206.899 235.526C203.288 235.27 200.268 235.033 197.943 234.831C196.664 234.723 195.39 235.093 194.367 235.869C193.345 236.645 192.646 237.772 192.406 239.033C192.356 239.3 192.326 239.57 192.317 239.841L191.982 250.758L191.524 264.586L191.307 271.66V271.798V272.212L191.297 272.192Z" fill="#3F3D56"/>
<path id="Vector_51" opacity="0.1" d="M332.977 242.014L332.371 249.566L331.469 260.822L331.243 263.64L330.75 269.951L330.72 270.266V270.35L330.647 271.079L330.701 270.35H330.558L277.845 270.842L191.312 271.778V271.641L191.553 264.566L192.046 250.743L192.361 241.556C192.377 241.033 192.523 240.523 192.786 240.071C193.05 239.619 193.422 239.24 193.869 238.969C194.427 238.627 195.079 238.472 195.731 238.526C196.766 238.61 198.037 238.708 199.52 238.817C201.929 238.994 204.899 239.201 208.358 239.418C214.762 239.822 222.797 240.255 232.004 240.61C257.622 241.595 292.206 241.925 325.055 239.048C326.533 238.92 328.06 238.777 329.553 238.634C330.144 238.575 330.739 238.688 331.267 238.959C331.417 239.034 331.559 239.123 331.691 239.225C332.12 239.536 332.46 239.954 332.676 240.437C332.727 240.533 332.768 240.634 332.799 240.738C332.947 241.146 333.008 241.581 332.977 242.014V242.014Z" fill="black"/>
<path id="Vector_52" opacity="0.1" d="M165.857 248.758V250.329C165.857 250.901 165.696 251.46 165.39 251.944C165.085 252.427 164.649 252.813 164.133 253.058L144.378 253.438C143.853 253.197 143.408 252.81 143.096 252.324C142.784 251.837 142.619 251.272 142.619 250.694V249.216L165.857 248.758Z" fill="black"/>
<path id="Vector_53" d="M166.104 253.985L140.363 254.477V250.206L166.104 249.714V253.985Z" fill="#3F3D56"/>
<path id="Vector_54" opacity="0.1" d="M166.104 253.985L140.363 254.477V250.206L166.104 249.714V253.985Z" fill="black"/>
<path id="Vector_55" d="M167.089 253.985L141.348 254.477V250.206L167.089 249.714V253.985Z" fill="#3F3D56"/>
<path id="Vector_56" opacity="0.1" d="M356.018 238.265C356.018 238.265 357.579 243.93 356.018 248.856C354.456 253.783 356.018 238.265 356.018 238.265Z" fill="black"/>
<path id="Vector_57" opacity="0.1" d="M362.668 244.043C362.668 244.043 363.324 251.236 361.846 252.512C360.368 253.787 362.668 244.043 362.668 244.043Z" fill="black"/>
<path id="Vector_58" d="M117.031 168.903L167.089 168.41" stroke="#223364" stroke-width="2" stroke-miterlimit="10"/>
<path id="Vector_59" d="M117.031 175.046L167.089 174.558" stroke="#223364" stroke-width="2" stroke-miterlimit="10"/>
<path id="Vector_60" d="M117.031 181.194L167.089 180.701" stroke="#223364" stroke-width="2" stroke-miterlimit="10"/>
<rect id="Rectangle 5" x="11" y="237" width="52" height="16" rx="8" fill="white"/>
</g>
<rect id="Rectangle 1" x="507" y="78" width="52" height="16" rx="8" fill="#E7E9EE"/>
<rect id="Rectangle 4" y="221" width="52" height="16" rx="8" fill="#E7E9EE"/>
<rect id="Rectangle 3" x="564" y="78" width="13" height="16" rx="6.5" fill="#E7E9EE"/>
<rect id="Rectangle 2" x="515" y="94" width="52" height="16" rx="8" fill="white"/>
</g>
<defs>
<clipPath id="clip0">
<rect width="513" height="273" fill="white" transform="translate(19)"/>
</clipPath>
</defs>
</svg>
